<svg width="952" height="899" viewBox="0 0 952 899" fill="none" xmlns="http://www.w3.org/2000/svg">
<rect x="476.24" width="152.34" height="154.489" transform="rotate(45 476.24 0)" fill="#95237A"/>
<rect x="608.24" y="134" width="152.34" height="154.489" transform="rotate(45 608.24 134)" fill="#273284"/>
<rect x="743.24" y="280" width="152.34" height="154.489" transform="rotate(45 743.24 280)" fill="#007038"/>
<path d="M481.5 555C371.5 608.5 417.5 728 471.5 730.5C447.9 709.7 449 679.167 452.5 666.5C455.3 650.1 474 641 483 638.5C480.6 648.9 487.5 661.5 492.5 666.5C516.1 693.7 510.166 718.833 503 728C547 695.5 524.5 634 519 628.5C479.142 588.642 471.333 563.167 481.5 555Z" fill="#E67817"/>
<rect x="476.24" y="279" width="152.34" height="154.489" transform="rotate(45 476.24 279)" fill="#EFE000"/>
<rect x="211.24" y="280" width="152.34" height="154.489" transform="rotate(45 211.24 280)" fill="#007038"/>
<rect x="346.24" y="134" width="152.34" height="154.489" transform="rotate(45 346.24 134)" fill="#0688C6"/>
<rect x="346.24" y="419" width="152.34" height="154.489" transform="rotate(45 346.24 419)" fill="#D6252B"/>
<rect x="607.24" y="419" width="152.34" height="154.489" transform="rotate(45 607.24 419)" fill="#D6252B"/>
<path d="M25.6449 866H3.2358L37.3807 767.091H64.3295L98.4261 866H76.017L51.2415 789.693H50.4688L25.6449 866ZM24.2443 827.122H77.1761V843.446H24.2443V827.122ZM128.587 844.653L128.635 819.974H131.629L155.391 791.818H179.007L147.084 829.102H142.206L128.587 844.653ZM109.945 866V767.091H130.518V866H109.945ZM156.308 866L134.479 833.69L148.195 819.153L180.408 866H156.308ZM250.822 812.972L231.987 814.131C231.665 812.521 230.973 811.072 229.911 809.784C228.848 808.464 227.447 807.418 225.709 806.645C224.002 805.84 221.958 805.438 219.575 805.438C216.388 805.438 213.699 806.114 211.51 807.466C209.321 808.786 208.226 810.557 208.226 812.778C208.226 814.549 208.934 816.046 210.351 817.27C211.768 818.493 214.198 819.475 217.643 820.216L231.07 822.92C238.282 824.402 243.659 826.784 247.2 830.068C250.742 833.352 252.513 837.667 252.513 843.011C252.513 847.873 251.08 852.139 248.214 855.81C245.381 859.48 241.485 862.346 236.527 864.406C231.601 866.435 225.918 867.449 219.479 867.449C209.659 867.449 201.835 865.404 196.007 861.315C190.212 857.194 186.815 851.592 185.817 844.509L206.053 843.446C206.664 846.44 208.145 848.726 210.496 850.304C212.846 851.849 215.857 852.622 219.527 852.622C223.133 852.622 226.031 851.93 228.22 850.545C230.442 849.129 231.569 847.31 231.601 845.088C231.569 843.221 230.78 841.691 229.234 840.5C227.689 839.277 225.306 838.343 222.087 837.699L209.24 835.139C201.996 833.69 196.603 831.179 193.061 827.605C189.552 824.031 187.797 819.475 187.797 813.938C187.797 809.172 189.085 805.067 191.661 801.622C194.268 798.177 197.923 795.521 202.624 793.653C207.357 791.786 212.894 790.852 219.237 790.852C228.607 790.852 235.98 792.832 241.357 796.793C246.766 800.753 249.921 806.146 250.822 812.972ZM286.042 823.114V866H265.468V767.091H285.462V804.906H286.332C288.006 800.527 290.71 797.098 294.445 794.619C298.18 792.108 302.865 790.852 308.499 790.852C313.651 790.852 318.142 791.979 321.974 794.233C325.837 796.455 328.832 799.658 330.957 803.844C333.114 807.997 334.176 812.972 334.144 818.767V866H313.57V822.438C313.603 817.866 312.443 814.308 310.093 811.764C307.775 809.221 304.523 807.949 300.337 807.949C297.536 807.949 295.057 808.545 292.9 809.736C290.775 810.927 289.101 812.666 287.877 814.952C286.686 817.205 286.074 819.926 286.042 823.114ZM371.489 867.401C366.756 867.401 362.538 866.58 358.835 864.938C355.133 863.263 352.203 860.8 350.045 857.548C347.92 854.264 346.858 850.175 346.858 845.281C346.858 841.16 347.615 837.699 349.128 834.898C350.641 832.097 352.702 829.843 355.31 828.136C357.918 826.43 360.88 825.142 364.196 824.273C367.545 823.403 371.054 822.792 374.724 822.438C379.039 821.987 382.516 821.568 385.156 821.182C387.796 820.763 389.712 820.152 390.903 819.347C392.095 818.542 392.69 817.35 392.69 815.773V815.483C392.69 812.424 391.724 810.058 389.793 808.384C387.893 806.709 385.188 805.872 381.679 805.872C377.976 805.872 375.03 806.693 372.841 808.335C370.652 809.945 369.203 811.973 368.494 814.42L349.466 812.875C350.432 808.367 352.331 804.472 355.165 801.188C357.998 797.871 361.652 795.328 366.128 793.557C370.635 791.754 375.851 790.852 381.776 790.852C385.897 790.852 389.841 791.335 393.608 792.301C397.407 793.267 400.772 794.764 403.702 796.793C406.664 798.821 408.998 801.429 410.705 804.616C412.411 807.772 413.264 811.555 413.264 815.966V866H393.753V855.713H393.173C391.982 858.031 390.388 860.076 388.392 861.847C386.396 863.585 383.997 864.954 381.196 865.952C378.395 866.918 375.159 867.401 371.489 867.401ZM377.381 853.202C380.407 853.202 383.08 852.606 385.398 851.415C387.716 850.191 389.535 848.549 390.855 846.489C392.175 844.428 392.835 842.094 392.835 839.486V831.614C392.191 832.032 391.306 832.419 390.179 832.773C389.084 833.095 387.845 833.401 386.46 833.69C385.076 833.948 383.691 834.189 382.307 834.415C380.922 834.608 379.667 834.785 378.54 834.946C376.125 835.3 374.016 835.864 372.213 836.636C370.41 837.409 369.009 838.455 368.011 839.776C367.013 841.063 366.514 842.673 366.514 844.605C366.514 847.406 367.528 849.547 369.557 851.028C371.617 852.477 374.225 853.202 377.381 853.202ZM429.226 866V791.818H449.172V804.761H449.945C451.297 800.157 453.567 796.68 456.754 794.33C459.942 791.947 463.612 790.756 467.766 790.756C468.796 790.756 469.907 790.82 471.098 790.949C472.289 791.078 473.336 791.255 474.237 791.48V809.736C473.271 809.446 471.935 809.188 470.229 808.963C468.522 808.738 466.961 808.625 465.544 808.625C462.518 808.625 459.813 809.285 457.43 810.605C455.08 811.893 453.213 813.696 451.828 816.014C450.476 818.332 449.8 821.005 449.8 824.031V866H429.226ZM516.737 767.091H542.527L569.766 833.545H570.925L598.163 767.091H623.953V866H603.669V801.622H602.848L577.251 865.517H563.439L537.842 801.381H537.021V866H516.737V767.091ZM661.95 867.401C657.217 867.401 652.999 866.58 649.296 864.938C645.594 863.263 642.664 860.8 640.506 857.548C638.381 854.264 637.319 850.175 637.319 845.281C637.319 841.16 638.076 837.699 639.589 834.898C641.102 832.097 643.163 829.843 645.771 828.136C648.379 826.43 651.341 825.142 654.657 824.273C658.005 823.403 661.515 822.792 665.185 822.438C669.5 821.987 672.977 821.568 675.617 821.182C678.257 820.763 680.173 820.152 681.364 819.347C682.556 818.542 683.151 817.35 683.151 815.773V815.483C683.151 812.424 682.185 810.058 680.254 808.384C678.354 806.709 675.649 805.872 672.14 805.872C668.437 805.872 665.491 806.693 663.302 808.335C661.112 809.945 659.664 811.973 658.955 814.42L639.927 812.875C640.893 808.367 642.792 804.472 645.626 801.188C648.459 797.871 652.113 795.328 656.589 793.557C661.096 791.754 666.312 790.852 672.237 790.852C676.358 790.852 680.302 791.335 684.069 792.301C687.868 793.267 691.233 794.764 694.163 796.793C697.125 798.821 699.459 801.429 701.165 804.616C702.872 807.772 703.725 811.555 703.725 815.966V866H684.214V855.713H683.634C682.443 858.031 680.849 860.076 678.853 861.847C676.857 863.585 674.458 864.954 671.657 865.952C668.856 866.918 665.62 867.401 661.95 867.401ZM667.842 853.202C670.868 853.202 673.54 852.606 675.859 851.415C678.177 850.191 679.996 848.549 681.316 846.489C682.636 844.428 683.296 842.094 683.296 839.486V831.614C682.652 832.032 681.767 832.419 680.64 832.773C679.545 833.095 678.306 833.401 676.921 833.69C675.537 833.948 674.152 834.189 672.768 834.415C671.383 834.608 670.128 834.785 669.001 834.946C666.586 835.3 664.477 835.864 662.674 836.636C660.871 837.409 659.47 838.455 658.472 839.776C657.474 841.063 656.975 842.673 656.975 844.605C656.975 847.406 657.989 849.547 660.018 851.028C662.078 852.477 664.686 853.202 667.842 853.202ZM740.261 823.114V866H719.687V791.818H739.295V804.906H740.164C741.806 800.592 744.559 797.179 748.423 794.668C752.286 792.124 756.971 790.852 762.477 790.852C767.628 790.852 772.12 791.979 775.951 794.233C779.782 796.487 782.761 799.706 784.886 803.892C787.011 808.045 788.073 813.004 788.073 818.767V866H767.499V822.438C767.531 817.898 766.372 814.356 764.022 811.812C761.672 809.237 758.436 807.949 754.315 807.949C751.546 807.949 749.099 808.545 746.974 809.736C744.881 810.927 743.239 812.666 742.048 814.952C740.888 817.205 740.293 819.926 740.261 823.114ZM825.442 867.401C820.709 867.401 816.491 866.58 812.788 864.938C809.086 863.263 806.156 860.8 803.999 857.548C801.874 854.264 800.811 850.175 800.811 845.281C800.811 841.16 801.568 837.699 803.081 834.898C804.594 832.097 806.655 829.843 809.263 828.136C811.871 826.43 814.833 825.142 818.149 824.273C821.498 823.403 825.007 822.792 828.678 822.438C832.992 821.987 836.469 821.568 839.109 821.182C841.75 820.763 843.665 820.152 844.857 819.347C846.048 818.542 846.643 817.35 846.643 815.773V815.483C846.643 812.424 845.678 810.058 843.746 808.384C841.846 806.709 839.142 805.872 835.632 805.872C831.929 805.872 828.983 806.693 826.794 808.335C824.605 809.945 823.156 811.973 822.447 814.42L803.419 812.875C804.385 808.367 806.285 804.472 809.118 801.188C811.951 797.871 815.606 795.328 820.081 793.557C824.589 791.754 829.804 790.852 835.729 790.852C839.85 790.852 843.794 791.335 847.561 792.301C851.36 793.267 854.725 794.764 857.655 796.793C860.617 798.821 862.951 801.429 864.658 804.616C866.364 807.772 867.217 811.555 867.217 815.966V866H847.706V855.713H847.126C845.935 858.031 844.341 860.076 842.345 861.847C840.349 863.585 837.95 864.954 835.149 865.952C832.348 866.918 829.112 867.401 825.442 867.401ZM831.334 853.202C834.36 853.202 837.033 852.606 839.351 851.415C841.669 850.191 843.488 848.549 844.808 846.489C846.128 844.428 846.788 842.094 846.788 839.486V831.614C846.144 832.032 845.259 832.419 844.132 832.773C843.037 833.095 841.798 833.401 840.413 833.69C839.029 833.948 837.644 834.189 836.26 834.415C834.875 834.608 833.62 834.785 832.493 834.946C830.078 835.3 827.969 835.864 826.166 836.636C824.363 837.409 822.963 838.455 821.964 839.776C820.966 841.063 820.467 842.673 820.467 844.605C820.467 847.406 821.482 849.547 823.51 851.028C825.571 852.477 828.179 853.202 831.334 853.202ZM949.682 791.818L923.747 866H900.565L874.631 791.818H896.364L911.77 844.895H912.543L927.901 791.818H949.682Z" fill="black"/>
</svg>
